<svg id="Layer_1" data-name="Layer 1" xmlns="http://www.w3.org/2000/svg" viewBox="0 0 50 50"><defs><style>.cls-1{fill:#d8cdb4;}</style></defs><title>Artboard 1</title><path class="cls-1" d="M25.66,23.46a5.05,5.05,0,0,1-1.48-.56,4.76,4.76,0,0,1-1.22-1,4.38,4.38,0,0,1-1.13-2.73,5.42,5.42,0,0,1,.64-2.76,7.32,7.32,0,0,1,.79-1.2l.24-.28s.57-.59.74-.74a21.13,21.13,0,0,1,1.86-1.47l.27-.2.68-.51.38-.31.34-.3a3.32,3.32,0,0,0,.88-1.3,4.5,4.5,0,0,0,.23-.88A10.07,10.07,0,0,0,29,8.18a.51.51,0,0,1,.36-.43.66.66,0,0,1,.22,0,.63.63,0,0,1,.39.13,4.38,4.38,0,0,1,1,1.06,4.05,4.05,0,0,1,.56,1.29,4,4,0,0,1,.08,1.43,3.91,3.91,0,0,1-.46,1.45c-.19.33-.27.46-.37.61a6.4,6.4,0,0,1-.43.57,11.28,11.28,0,0,1-.91,1c-.38.36-.75.7-1.11,1l-.6.54-.69.67a7,7,0,0,0-.54.65,5.31,5.31,0,0,0-.76,1.4,3.09,3.09,0,0,0-.14,1.5,3.58,3.58,0,0,0,.25.84,6.84,6.84,0,0,0,.52.92.43.43,0,0,1,0,.53.61.61,0,0,1-.46.19ZM30,9.53a5.28,5.28,0,0,1-.25.89,4.29,4.29,0,0,1-1.14,1.68l-.35.31-.42.34-.7.53-.28.2a20,20,0,0,0-1.77,1.4c-.14.12-.54.54-.65.65l-.1.08s-.06.1-.12.18a6.42,6.42,0,0,0-.69,1A4.55,4.55,0,0,0,23,19.15a3.47,3.47,0,0,0,.89,2.17,3.7,3.7,0,0,0,.76.64,4.44,4.44,0,0,1-.23-.85,3.93,3.93,0,0,1,.18-1.91,6.24,6.24,0,0,1,.89-1.65,8.29,8.29,0,0,1,.63-.75l.73-.71.64-.57c.34-.3.7-.61,1-1a10.15,10.15,0,0,0,.83-.89,5.36,5.36,0,0,0,.36-.48l.34-.57a3,3,0,0,0,.35-1.12,3.13,3.13,0,0,0-.41-2Z"/><path class="cls-1" d="M19,17.71a.6.6,0,0,1-.48-.22,5.19,5.19,0,0,1-.69-1.17A5.12,5.12,0,0,1,17.52,15,4.69,4.69,0,0,1,18,12.27a5.21,5.21,0,0,1,.37-.64c.14-.2.27-.39.42-.57a11.11,11.11,0,0,1,.92-1c.42-.41.85-.8,1.27-1.17l.57-.51.4-.38.37-.36a4.87,4.87,0,0,0,.54-.7,4.23,4.23,0,0,0,.62-1.6,5.23,5.23,0,0,0,0-1.86,7.63,7.63,0,0,0-.26-1c-.12-.34-.26-.69-.41-1.05a.45.45,0,0,1,.19-.55.63.63,0,0,1,.35-.1.64.64,0,0,1,.33.09,6.49,6.49,0,0,1,1.15.88,6.66,6.66,0,0,1,.91,1.07,5.64,5.64,0,0,1,1,2.59,5.15,5.15,0,0,1-.52,2.81,6.17,6.17,0,0,1-.83,1.26,11.42,11.42,0,0,1-1,1c-.51.47-1,.88-1.53,1.28l-.43.34c-.3.24-.59.48-.86.73l-.38.36c-.12.11-.22.23-.32.34a4.61,4.61,0,0,0-.87,1.63,6.93,6.93,0,0,0-.21,1c0,.35-.07.72-.09,1.1a.52.52,0,0,1-.42.45Zm5.5-14.4a6.09,6.09,0,0,1,0,2.16,5.12,5.12,0,0,1-.75,1.94,5.86,5.86,0,0,1-.65.84l-.4.4-.42.4-.58.52c-.41.37-.82.73-1.23,1.13a10.25,10.25,0,0,0-.84.92c-.14.17-.25.33-.38.51a4,4,0,0,0-.31.53,3.86,3.86,0,0,0-.38,2.27c0,.11,0,.21.06.32,0-.11.06-.22.09-.33a5.52,5.52,0,0,1,1.05-2c.12-.15.24-.28.38-.41l.41-.39c.29-.26.59-.51.91-.77L22,11c.49-.39,1-.79,1.48-1.24a10.24,10.24,0,0,0,.89-.92,5.18,5.18,0,0,0,.7-1.07,4.3,4.3,0,0,0,.44-2.35,4.74,4.74,0,0,0-.82-2.18L24.49,3C24.51,3.11,24.53,3.21,24.55,3.31Z"/><path class="cls-1" d="M20.06,48.9c-3.55,0-12.89-1.12-12.89-3.66v-.29A.83.83,0,0,1,8,44.15h6.57a19.33,19.33,0,0,1-6.63-14.8c0-.25,0-.49,0-.74a1.1,1.1,0,0,1,1.08-1H39.19a1.08,1.08,0,0,1,1.08,1c0,.24,0,.49,0,.74a17.8,17.8,0,0,1-.09,2.06h.23a4.42,4.42,0,0,1,2.6.82,4.62,4.62,0,0,1,1.45,5.08,6.89,6.89,0,0,1-6.29,4,6.4,6.4,0,0,1-1.69-.22,17.39,17.39,0,0,1-2.85,3h6.57a.82.82,0,0,1,.82.79v.3c0,2.53-9.34,3.66-12.89,3.66ZM8.33,45.3c.27.88,6.34,2.44,11.73,2.44h8.11c5.39,0,11.45-1.56,11.73-2.44h-8a.58.58,0,0,1-.32-1.05,16,16,0,0,0,4.19-4.15.58.58,0,0,1,.47-.25.57.57,0,0,1,.19,0,5.18,5.18,0,0,0,1.72.29,5.72,5.72,0,0,0,5.22-3.31,3.53,3.53,0,0,0-1-3.7,3.3,3.3,0,0,0-1.95-.61,4.11,4.11,0,0,0-.78.08h-.11A.57.57,0,0,1,39,32a14.79,14.79,0,0,0,.17-2.63c0-.21,0-.41,0-.62H9a1.92,1.92,0,0,1,.05.62,18,18,0,0,0,7.52,14.9.58.58,0,0,1,.23.65.57.57,0,0,1-.55.41Z"/><path class="cls-1" d="M38.28,38.54a3.2,3.2,0,0,1-.79-.09.57.57,0,0,1-.36-.85,10.17,10.17,0,0,0,1.08-2.7.58.58,0,0,1,.35-.4,3,3,0,0,1,1-.18,2.43,2.43,0,0,1,1.2.29,1.72,1.72,0,0,1,.56,2.4A3.65,3.65,0,0,1,38.28,38.54Zm1-3a11.5,11.5,0,0,1-.7,1.87,2.41,2.41,0,0,0,1.8-.93.59.59,0,0,0-.14-.84,1.37,1.37,0,0,0-.63-.13Z"/></svg>