<svg id="Layer_1" data-name="Layer 1" xmlns="http://www.w3.org/2000/svg" viewBox="0 0 50 50"><defs><style>.cls-1{fill:#d8cdb4;}</style></defs><title>Artboard 1 copy 2</title><path class="cls-1" d="M19.51,31.73a.57.57,0,0,1-.33-.11.55.55,0,0,1-.33.11H15.68a.58.58,0,0,1-.57-.49L14,23.77a.58.58,0,0,1,.57-.66H15.7a.57.57,0,0,1,.34.11.54.54,0,0,1,.33-.11h7a.58.58,0,0,1,.57.66l-1.09,7.47a.58.58,0,0,1-.57.49Zm2.27-1.15.92-6.32H17.23l2.66,6.32Zm-3.79,0-2.66-6.32h0l.9,6.32Z"/><path class="cls-1" d="M26.31,31.73a.58.58,0,0,1-.57-.65l1-7.47a.58.58,0,0,1,.57-.5h7.2a.58.58,0,0,1,.57.67l-1.28,7.47a.57.57,0,0,1-.57.48Zm6.48-1.15,1.08-6.32h-6L27,30.58Z"/><path class="cls-1" d="M15.8,49.06a.57.57,0,0,1-.57-.48l-4.65-27.3a.57.57,0,0,1,.57-.67h1.78l-.58-1.34-.22.61a.57.57,0,0,1-.2.27.61.61,0,0,1-.36.12.54.54,0,0,1-.22,0l-.6-.26-.22.61a.57.57,0,0,1-.27.31A.61.61,0,0,1,10,21a.57.57,0,0,1-.22,0l-.6-.26-.22.61a.57.57,0,0,1-.36.35.54.54,0,0,1-.18,0,.57.57,0,0,1-.31-.09.58.58,0,0,1-.26-.42L6.15,4.19a.57.57,0,0,1,.34-.58.56.56,0,0,1,.23,0,.57.57,0,0,1,.43.2L18.41,16.53a.58.58,0,0,1-.19.9.62.62,0,0,1-.25.05.56.56,0,0,1-.22,0l-.6-.26-.22.61a.58.58,0,0,1-.32.33.63.63,0,0,1-.24,0,.55.55,0,0,1-.22,0l-.6-.25-.22.61a.58.58,0,0,1-.36.35.61.61,0,0,1-.19,0,.56.56,0,0,1-.23,0L14,18.58l.89,2h8.33L25.92,1.09a.58.58,0,0,1,.57-.5l4,.34a.58.58,0,0,1,.52.65L28.72,18.1a10.14,10.14,0,0,1,16.83-4.16l0,0,0,0a10.13,10.13,0,0,1,0,14.3l0,0,0,0a10.13,10.13,0,0,1-8.79,2.81l-3,17.43a.57.57,0,0,1-.57.48Zm16.94-1.15,4.45-26.15H27.71a.58.58,0,0,1-.57-.65L29.82,2,27,1.78,24.25,21.27a.58.58,0,0,1-.57.5H14.47a.57.57,0,0,1-.33-.11.55.55,0,0,1-.33.11h-2l4.45,26.15ZM36.94,30a8.37,8.37,0,0,0,.88.09V24.83Zm2,.09a9,9,0,0,0,5.36-2.22L39,22.52Zm6.17-3a9,9,0,0,0,2.22-5.36H39.79Zm-8.08-6.46L31.65,15.2a9,9,0,0,0-2.23,5.41Zm10.3-.06a9,9,0,0,0-2.22-5.36l-5.36,5.36Zm-9.54-.81V12.16a9,9,0,0,0-5.36,2.22Zm1.15,0,5.36-5.36A9,9,0,0,0,39,12.16ZM8.82,19.32a.56.56,0,0,1,.23,0l.61.26L9.88,19a.58.58,0,0,1,.54-.38.55.55,0,0,1,.23,0l.61.26.23-.62a.58.58,0,0,1,.31-.33.57.57,0,0,1,.46,0l.61.26.22-.62a.58.58,0,0,1,.54-.38.56.56,0,0,1,.23,0l.61.26.22-.62a.57.57,0,0,1,.54-.38.56.56,0,0,1,.23,0l.61.26.22-.62a.57.57,0,0,1,.14-.22L7.47,5.85,8.79,19.32Z"/></svg>