<svg id="Layer_1" data-name="Layer 1" xmlns="http://www.w3.org/2000/svg" viewBox="0 0 50 50"><defs><style>.cls-1{fill:#d8cdb4;}</style></defs><title>Artboard 1 copy 3</title><path class="cls-1" d="M13.87,49.06a.57.57,0,0,1-.54-.36L4.51,26.31A.58.58,0,0,1,5,25.53h5.34a8.55,8.55,0,0,1,6.77-11.9A6,6,0,0,1,20,8.19c.71-.48,1.5-.94,2.27-1.38C24,5.8,25.88,4.75,26,3.64c.06-.56-.32-1.18-1.16-1.91A.65.65,0,0,1,24.59,1a.68.68,0,0,1,.6-.4c.82,0,5.11,2,8.08,5.12,2.14,2.23,3.17,4.56,3.07,6.92a8.82,8.82,0,0,1-.81,3.51,7.14,7.14,0,0,1,4.9,9.39H45a.58.58,0,0,1,.54.78L37.23,48.69a.58.58,0,0,1-.54.37Zm22.43-1.15,7.92-21.23H39.55a.58.58,0,0,1-.51-.84A5.92,5.92,0,0,0,39.73,23a6,6,0,0,0-5.17-5.94.57.57,0,0,1-.4-.89,7,7,0,0,0,1-3.65c.22-5.23-6.23-9-8.3-10.11a2.4,2.4,0,0,1,.24,1.29C27,5.45,25,6.6,22.83,7.81c-.75.43-1.53.87-2.2,1.33a4.81,4.81,0,0,0-2.26,4.92.57.57,0,0,1-.54.66,7.4,7.4,0,0,0-6,11.09.58.58,0,0,1-.5.86H5.89l8.37,21.23Z"/><path class="cls-1" d="M25,45.81a.58.58,0,0,1-.58-.58V30.1a.58.58,0,1,1,1.15,0V45.24A.58.58,0,0,1,25,45.81Z"/><path class="cls-1" d="M30.57,45.8a.57.57,0,0,1-.44-.68L33.44,30a.58.58,0,0,1,.56-.45h.12a.57.57,0,0,1,.44.68L31.25,45.36a.58.58,0,0,1-.56.45Z"/><path class="cls-1" d="M19.38,45.81a.58.58,0,0,1-.56-.45L15.5,30.22a.57.57,0,0,1,.44-.68h.12a.58.58,0,0,1,.56.45l3.31,15.14a.57.57,0,0,1-.44.68Z"/></svg>